<?xml version="1.0" encoding="UTF-8" standalone="no"?>
<!DOCTYPE svg PUBLIC "-//W3C//DTD SVG 1.1//EN" "http://www.w3.org/Graphics/SVG/1.1/DTD/svg11.dtd">
<svg version="1.1" xmlns="http://www.w3.org/2000/svg" xmlns:xlink="http://www.w3.org/1999/xlink" preserveAspectRatio="xMidYMid meet" viewBox="0 0 640 640" width="640" height="640"><defs><path d="M184.95 190.1L280.87 190.1L280.88 190.18L281.35 192.28L281.9 194.34L282.53 196.38L283.23 198.38L284.01 200.34L284.86 202.26L285.78 204.14L286.77 205.98L287.83 207.78L288.95 209.53L290.14 211.23L291.39 212.89L292.7 214.49L294.08 216.04L295.5 217.54L296.99 218.98L298.52 220.37L300.11 221.69L301.75 222.95L303.44 224.15L305.17 225.29L306.95 226.36L308.77 227.36L310.64 228.29L312.54 229.15L314.49 229.93L316.47 230.64L318.48 231.27L320.53 231.83L322.6 232.3L324.71 232.69L326.85 233L329.01 233.22L331.19 233.36L333.4 233.4L335.61 233.36L337.8 233.22L339.96 233L342.09 232.69L344.2 232.3L346.28 231.83L348.33 231.27L350.34 230.64L352.32 229.93L354.26 229.15L356.16 228.29L358.03 227.36L359.85 226.36L361.63 225.29L363.37 224.15L365.05 222.95L366.69 221.69L368.28 220.37L369.82 218.98L371.3 217.54L372.73 216.04L374.1 214.49L375.41 212.89L376.66 211.23L377.85 209.53L378.97 207.78L380.03 205.98L381.02 204.14L381.94 202.26L382.79 200.34L383.57 198.38L384.28 196.38L384.9 194.34L385.45 192.28L385.92 190.18L385.93 190.1L476.7 190.1L476.7 271.55L184.95 271.55L184.95 271.55L184.95 190.1Z" id="d9Odx0gB2L"></path></defs><g><g><g><use xlink:href="#d9Odx0gB2L" opacity="1" fill="#eaeaea" fill-opacity="1"></use></g></g></g></svg>